<svg xmlns="http://www.w3.org/2000/svg" viewBox="0 0 64 64" id="game-console">
  <path fill="#2a2f63" d="M63.09,30.83l0-.15c-.91-7.46-5.22-16.11-12.54-17.42-5.7-1-9.3,2.82-11,5.21a2.84,2.84,0,0,1-2.3,1.23h-1.1V18.52a1.73,1.73,0,0,0-1.74-1.73h-2v-2a2.83,2.83,0,0,1,2.8-2.82H37a3.8,3.8,0,0,0,3.78-3.8V5a.5.5,0,0,0-.49-.49.49.49,0,0,0-.49.49V8.12A2.81,2.81,0,0,1,37,10.94H35.23a3.79,3.79,0,0,0-3.78,3.8V16.8h-2a1.73,1.73,0,0,0-1.74,1.74v1.18h-1.1a2.81,2.81,0,0,1-2.3-1.22c-1.66-2.38-5.28-6.23-11-5.16C6,14.69,1.75,23.35.88,30.9c-1,8.33-3,25.65,6.54,28.39C12.33,60.71,17.1,54,20.34,47.9a3.34,3.34,0,0,0,5.2-2.8A3.23,3.23,0,0,0,25.33,44a26.63,26.63,0,0,1,13.33,0,3.21,3.21,0,0,0-.19,1.07,3.35,3.35,0,0,0,5.22,2.78c3,5.53,7.18,11.54,11.61,11.53a4.92,4.92,0,0,0,1.36-.2C66.16,56.41,64.09,39.13,63.09,30.83ZM28.7,18.53a.76.76,0,0,1,.76-.75h5a.76.76,0,0,1,.76.75V19.7l-6.49,0ZM22.2,47.48a2.37,2.37,0,1,1,2.36-2.38A2.37,2.37,0,0,1,22.2,47.48Zm21.3-.74h0a2.32,2.32,0,0,1-1.66.7,2.37,2.37,0,1,1,2.36-2.38A2.44,2.44,0,0,1,43.5,46.74Zm12.89,11.5c-4.57,1.34-9.39-6.24-12-11.1a3.34,3.34,0,1,0-5.31-4,28,28,0,0,0-14.28,0,3.34,3.34,0,0,0-6,2,3.32,3.32,0,0,0,.74,2.08c-2.54,4.86-7.34,12.46-11.91,11.14C-1.06,55.84.9,39.07,1.86,30.93c.82-7.12,4.82-15.36,11.67-16.63,4.89-.91,8.12,2.08,10,4.76a3.78,3.78,0,0,0,3.11,1.64l10.66,0A3.76,3.76,0,0,0,40.39,19c1.85-2.68,5.08-5.69,10-4.8,6.84,1.24,10.88,9.46,11.74,16.58l0,.14C63.07,39,65.09,55.71,56.39,58.24Z"></path>
  <path fill="#47b28e" d="M35.19,18.52V19.7l-6.49,0V18.53a.76.76,0,0,1,.76-.75h5A.76.76,0,0,1,35.19,18.52Z"></path>
  <path fill="#d7e9f2" d="M24.56 45.1a2.37 2.37 0 1 1-2.37-2.35A2.37 2.37 0 0 1 24.56 45.1zM44.19 45.06a2.44 2.44 0 0 1-.69 1.68h0a2.32 2.32 0 0 1-1.66.7 2.37 2.37 0 1 1 2.36-2.38z"></path>
  <path fill="#47b28e" d="M62.11,30.94l0-.14c-.86-7.12-4.9-15.34-11.74-16.58-4.88-.89-8.11,2.12-10,4.8a3.76,3.76,0,0,1-3.11,1.66l-10.66,0a3.78,3.78,0,0,1-3.11-1.64c-1.86-2.68-5.09-5.67-10-4.76C6.68,15.57,2.68,23.81,1.86,30.93c-1,8.14-2.92,24.91,5.82,27.41,4.57,1.32,9.37-6.28,11.91-11.14a3.34,3.34,0,0,1,2.6-5.44,3.36,3.36,0,0,1,2.66,1.33,28,28,0,0,1,14.28,0,3.34,3.34,0,1,1,5.31,4c2.56,4.86,7.38,12.44,12,11.1C65.09,55.71,63.07,39,62.11,30.94ZM15.23,41.31a8.89,8.89,0,1,1,8.86-8.9A8.9,8.9,0,0,1,15.23,41.31ZM49,24.75a2.73,2.73,0,1,1-2.73,2.73A2.74,2.74,0,0,1,49,24.75ZM44.16,35.1a2.73,2.73,0,1,1,2.74-2.74A2.74,2.74,0,0,1,44.16,35.1ZM49.06,40a2.73,2.73,0,1,1,2.72-2.73A2.74,2.74,0,0,1,49.06,40Zm4.86-4.88a2.74,2.74,0,1,1,2.72-2.74A2.73,2.73,0,0,1,53.92,35.08Z"></path>
  <path fill="#3ba580" d="M16.68,14.25l-.27.05c-5.51,1.2-8.83,8.75-9.72,15.61a8.85,8.85,0,0,0-.37,2.53c0,.23,0,.46,0,.68C5.59,41.43,4.79,55,10.76,58a4.32,4.32,0,0,1-3.08.32C-1.06,55.84.9,39.07,1.86,30.93c.82-7.12,4.82-15.36,11.67-16.63A9.06,9.06,0,0,1,16.68,14.25Z"></path>
  <path fill="#53bf9f" d="M56.39,58.24a4.37,4.37,0,0,1-3.08-.31c6.49-3.35,4.87-19.21,4.09-27v-.15c-.74-7.12-4.15-15.34-9.91-16.58l-.28-.05a9,9,0,0,1,3.15,0c6.84,1.24,10.88,9.46,11.74,16.58l0,.14C63.07,39,65.09,55.71,56.39,58.24Z"></path>
  <path fill="#2a2f63" d="M49,24.75a2.73,2.73,0,1,0,2.74,2.72A2.74,2.74,0,0,0,49,24.75Zm0,4.47a1.74,1.74,0,1,1,1.74-1.75A1.74,1.74,0,0,1,49,29.22Z"></path>
  <path fill="#d7e9f2" d="M50.77,27.47A1.75,1.75,0,1,1,49,25.74,1.74,1.74,0,0,1,50.77,27.47Z"></path>
  <path fill="#2a2f63" d="M49.05,34.51a2.73,2.73,0,1,0,2.73,2.72A2.74,2.74,0,0,0,49.05,34.51Zm0,4.47a1.75,1.75,0,1,1,1.73-1.75A1.75,1.75,0,0,1,49.06,39Z"></path>
  <path fill="#d7e9f2" d="M50.79,37.23a1.75,1.75,0,1,1-1.74-1.74A1.73,1.73,0,0,1,50.79,37.23Z"></path>
  <path fill="#2a2f63" d="M44.15,29.64a2.73,2.73,0,1,0,2.75,2.72A2.73,2.73,0,0,0,44.15,29.64Zm0,4.47a1.75,1.75,0,1,1,1.75-1.75A1.73,1.73,0,0,1,44.16,34.11Z"></path>
  <path fill="#d7e9f2" d="M45.91,32.36a1.75,1.75,0,1,1-1.76-1.74A1.75,1.75,0,0,1,45.91,32.36Z"></path>
  <path fill="#2a2f63" d="M53.91,29.61a2.74,2.74,0,1,0,2.73,2.73A2.73,2.73,0,0,0,53.91,29.61Zm0,4.48a1.75,1.75,0,1,1,1.74-1.75A1.74,1.74,0,0,1,53.92,34.09Z"></path>
  <path fill="#d7e9f2" d="M55.66,32.34a1.75,1.75,0,1,1-1.75-1.74A1.75,1.75,0,0,1,55.66,32.34Z"></path>
  <path fill="#2a2f63" d="M20.08,30.42H17.21V27.55a.49.49,0,0,0-.49-.49h-3a.49.49,0,0,0-.49.5v2.87H10.33a.48.48,0,0,0-.49.49v3a.49.49,0,0,0,.5.49h2.87v2.87a.48.48,0,0,0,.49.49h3a.49.49,0,0,0,.49-.5V34.43h2.87a.48.48,0,0,0,.49-.49v-3A.49.49,0,0,0,20.08,30.42Zm-.48,3H16.72a.48.48,0,0,0-.49.49v2.87h-2V33.94a.48.48,0,0,0-.49-.49H10.83v-2H13.7a.48.48,0,0,0,.49-.49V28.05h2v2.88a.48.48,0,0,0,.49.49h2.87Z"></path>
  <path fill="#2a2f63" d="M15.2,23.54a8.89,8.89,0,1,0,8.89,8.87A8.91,8.91,0,0,0,15.2,23.54Zm0,16.79a7.9,7.9,0,1,1,7.88-7.92A7.91,7.91,0,0,1,15.23,40.33Z"></path>
  <path fill="#d7e9f2" d="M15.2,24.53a7.9,7.9,0,1,0,7.91,7.88A7.91,7.91,0,0,0,15.2,24.53Zm5.38,9.4a.48.48,0,0,1-.49.49H17.22V37.3a.49.49,0,0,1-.49.5h-3a.48.48,0,0,1-.49-.49V34.44H10.34a.49.49,0,0,1-.5-.49v-3a.48.48,0,0,1,.49-.49H13.2V27.56a.49.49,0,0,1,.49-.5h3a.49.49,0,0,1,.49.49v2.87h2.87a.49.49,0,0,1,.5.49Z"></path>
  <path fill="#cadee5" d="M22.44,35.61a8,8,0,0,1-1.09,1.8,7.9,7.9,0,0,1-12.91-6.1,7.86,7.86,0,0,1,1.76-5,7.69,7.69,0,0,1,1.8-1.1,7.64,7.64,0,0,0-.66,3.18,7.54,7.54,0,0,0,.27,2H10.33a.48.48,0,0,0-.49.49v3a.49.49,0,0,0,.5.49h2.87v2.87a.48.48,0,0,0,.49.49h3a.49.49,0,0,0,.49-.5V36a7.61,7.61,0,0,0,2,.27A8.05,8.05,0,0,0,22.44,35.61Z"></path>
  <path fill="#bcd2d8" d="M21.35,37.41A7.9,7.9,0,1,1,10.2,26.32,7.91,7.91,0,0,0,16.36,39.2,8,8,0,0,0,21.35,37.41Z"></path>
  <path fill="#f26e61" d="M19.59,31.4v2H16.72a.48.48,0,0,0-.49.49v2.87h-2V33.94a.48.48,0,0,0-.49-.49H10.83v-2H13.7a.48.48,0,0,0,.49-.49V28.05h2v2.88a.48.48,0,0,0,.49.49Z"></path>
</svg>
